<svg width="14" height="16" viewBox="0 0 14 16" fill="none" xmlns="http://www.w3.org/2000/svg">
<path d="M7 0.5C4.93701 0.5 3.25 2.18701 3.25 4.25C3.25 5.46094 3.83838 6.53271 4.73438 7.21875C3.72852 7.6582 2.896 8.40283 2.29297 9.32812C1.76318 9.50879 1.36279 10.0288 1.45312 10.6367H1.43359L1.58984 11.8086C0.759766 12.0015 0.125 12.7412 0.125 13.625C0.125 14.6528 0.972168 15.5 2 15.5H12C13.0278 15.5 13.875 14.6528 13.875 13.625C13.875 12.7119 13.2012 11.9502 12.332 11.7891L12.4883 10.6562C12.4883 10.6489 12.4883 10.644 12.4883 10.6367C12.5737 10.0654 12.2271 9.57715 11.7461 9.36719C11.1431 8.44922 10.291 7.69482 9.26562 7.23828C10.1665 6.55225 10.75 5.46582 10.75 4.25C10.75 2.18701 9.06299 0.5 7 0.5ZM7 1.75C8.38916 1.75 9.5 2.86084 9.5 4.25C9.5 5.63916 8.38916 6.75 7 6.75C5.61084 6.75 4.5 5.63916 4.5 4.25C4.5 2.86084 5.61084 1.75 7 1.75ZM7 8C8.18164 8 9.25586 8.48828 10.0469 9.25H3.91406C4.70752 8.46143 5.7915 8 7 8ZM2.68359 10.5H11.2578L10.75 14.2305V14.25H3.19141C3.19873 14.25 3.19141 14.2329 3.19141 14.2305L2.68359 10.5ZM10.125 11.125C9.78076 11.125 9.5 11.4058 9.5 11.75C9.5 12.0942 9.78076 12.375 10.125 12.375C10.4692 12.375 10.75 12.0942 10.75 11.75C10.75 11.4058 10.4692 11.125 10.125 11.125ZM12.1758 13.0391C12.4321 13.1172 12.625 13.3418 12.625 13.625C12.625 13.9717 12.3467 14.25 12 14.25L12.1758 13.0391ZM1.76562 13.0586L1.92188 14.2305C1.6167 14.189 1.375 13.9424 1.375 13.625C1.375 13.3662 1.54102 13.1538 1.76562 13.0586Z" fill="#109CF1"/>
</svg>
