<svg width="18" height="18" viewBox="0 0 18 18" fill="none" xmlns="http://www.w3.org/2000/svg">
<path d="M6.5 0.25C4.09033 0.25 2.125 2.21533 2.125 4.625C2.125 6.13135 2.89404 7.46924 4.05859 8.25781C1.82959 9.21484 0.25 11.4268 0.25 14H1.5C1.5 11.2314 3.73145 9 6.5 9C7.35938 9 8.16016 9.22461 8.86328 9.60547C8.16992 10.4648 7.75 11.5635 7.75 12.75C7.75 15.5039 9.99609 17.75 12.75 17.75C15.5039 17.75 17.75 15.5039 17.75 12.75C17.75 9.99609 15.5039 7.75 12.75 7.75C11.6587 7.75 10.6431 8.10889 9.82031 8.70703C9.54443 8.53369 9.24414 8.38721 8.94141 8.25781C10.106 7.46924 10.875 6.13135 10.875 4.625C10.875 2.21533 8.90967 0.25 6.5 0.25ZM6.5 1.5C8.2334 1.5 9.625 2.8916 9.625 4.625C9.625 6.3584 8.2334 7.75 6.5 7.75C4.7666 7.75 3.375 6.3584 3.375 4.625C3.375 2.8916 4.7666 1.5 6.5 1.5ZM12.75 9C14.8276 9 16.5 10.6724 16.5 12.75C16.5 14.8276 14.8276 16.5 12.75 16.5C10.6724 16.5 9 14.8276 9 12.75C9 10.6724 10.6724 9 12.75 9ZM14.8008 11.0508L12.75 13.1016L11.3242 11.6758L10.4258 12.5742L12.3008 14.4492L12.75 14.8789L13.1992 14.4492L15.6992 11.9492L14.8008 11.0508Z" fill="#109CF1"/>
</svg>
