<svg width="14" height="16" viewBox="0 0 14 16" fill="none" xmlns="http://www.w3.org/2000/svg">
<path d="M8.25 0.5C5.95996 0.5 4.22168 1.03955 3.05469 2.14062C1.8877 3.2417 1.375 4.84814 1.375 6.75V7.31641C1.01611 7.65576 0.75 8.09277 0.75 8.625C0.75 9.41113 1.30664 9.97266 2 10.2461C2.23193 10.9761 2.4834 11.7427 2.76172 12.3945C3.06689 13.1074 3.34033 13.6738 3.71875 14.0742C5.51318 15.9712 8.48682 15.9712 10.2812 14.0742C10.6597 13.6738 10.9136 13.1074 11.2188 12.3945C11.4971 11.7427 11.7681 10.9761 12 10.2461C12.6934 9.97266 13.25 9.41113 13.25 8.625C13.25 8.09521 12.9814 7.6582 12.625 7.31641V6.75C12.625 4.98486 12.2222 3.72754 11.5117 2.90234C10.9087 2.20166 10.103 1.91602 9.30469 1.82812L8.64062 0.5H8.25ZM7.87891 1.78906L8.30859 2.64844C8.51611 3.06592 8.59912 3.36133 8.60156 3.48828C8.604 3.61523 8.60889 3.56397 8.58203 3.58594C8.52832 3.63232 8.00098 3.7666 7.35156 3.80078C6.70215 3.83496 5.93555 3.81787 5.22266 4.09375C4.50977 4.36963 3.88232 5.11182 3.875 6.125H5.125C5.12988 5.50977 5.27393 5.41943 5.67188 5.26562C6.06982 5.11182 6.7583 5.06543 7.42969 5.03125C8.10107 4.99707 8.79443 5.03857 9.38281 4.54297C9.67578 4.29639 9.86377 3.86914 9.85156 3.44922C9.84912 3.35645 9.82715 3.26855 9.8125 3.17578C10.0835 3.29053 10.335 3.46631 10.5547 3.72266C11.0088 4.25 11.375 5.17529 11.375 6.75V7.90234L11.6875 8.07812C11.8779 8.18799 12 8.38818 12 8.625C12 8.95947 11.7607 9.22314 11.4336 9.25L11.0039 9.26953L10.8867 9.67969C10.6548 10.4316 10.3667 11.2251 10.0859 11.8867C9.80518 12.5483 9.48291 13.1099 9.38281 13.2148C8.05225 14.6211 5.94775 14.6211 4.61719 13.2148C4.51709 13.1099 4.19482 12.5483 3.91406 11.8867C3.6333 11.2251 3.34522 10.4316 3.11328 9.67969L2.99609 9.26953L2.56641 9.25C2.23926 9.22314 2 8.95947 2 8.625C2 8.39062 2.11963 8.18799 2.3125 8.07812L2.625 7.90234V6.75C2.625 5.06543 3.05225 3.85205 3.91406 3.03906C4.71484 2.28223 6.021 1.85254 7.87891 1.78906ZM5.125 8C4.78076 8 4.5 8.28076 4.5 8.625C4.5 8.96924 4.78076 9.25 5.125 9.25C5.46924 9.25 5.75 8.96924 5.75 8.625C5.75 8.28076 5.46924 8 5.125 8ZM8.875 8C8.53076 8 8.25 8.28076 8.25 8.625C8.25 8.96924 8.53076 9.25 8.875 9.25C9.21924 9.25 9.5 8.96924 9.5 8.625C9.5 8.28076 9.21924 8 8.875 8Z" fill="#109CF1"/>
</svg>
